<svg width="24" height="24" viewBox="0 0 24 24" fill="none" xmlns="http://www.w3.org/2000/svg">
<g filter="url(#filter0_d_1287_5409)">
<path d="M12.0007 0C9.82806 0 9.55539 0.00950025 8.70205 0.048334C7.85037 0.0873344 7.26903 0.222169 6.76036 0.420004C6.23419 0.62434 5.78785 0.897676 5.34318 1.34251C4.89818 1.78719 4.62484 2.23352 4.41984 2.75953C4.2215 3.26837 4.0865 3.84987 4.04817 4.70122C4.01 5.55456 4 5.82739 4 8.00008C4 10.1728 4.00967 10.4446 4.04833 11.298C4.0875 12.1496 4.22234 12.731 4.42 13.2396C4.62451 13.7658 4.89784 14.2121 5.34268 14.6568C5.78719 15.1018 6.23352 15.3758 6.75936 15.5802C7.26837 15.778 7.84987 15.9128 8.70138 15.9518C9.55472 15.9907 9.82723 16.0002 11.9998 16.0002C14.1726 16.0002 14.4444 15.9907 15.2978 15.9518C16.1495 15.9128 16.7315 15.778 17.2405 15.5802C17.7665 15.3758 18.2121 15.1018 18.6567 14.6568C19.1017 14.2121 19.375 13.7658 19.58 13.2398C19.7767 12.731 19.9117 12.1495 19.9517 11.2981C19.99 10.4448 20 10.1728 20 8.00008C20 5.82739 19.99 5.55472 19.9517 4.70138C19.9117 3.84971 19.7767 3.26837 19.58 2.7597C19.375 2.23352 19.1017 1.78719 18.6567 1.34251C18.2116 0.897509 17.7666 0.624173 17.24 0.420004C16.73 0.222169 16.1483 0.0873344 15.2966 0.048334C14.4433 0.00950025 14.1716 0 11.9982 0H12.0007ZM11.2831 1.44168C11.4961 1.44135 11.7337 1.44168 12.0007 1.44168C14.1368 1.44168 14.3899 1.44935 15.2335 1.48768C16.0135 1.52335 16.4368 1.65368 16.7188 1.76319C17.0921 1.90819 17.3583 2.08152 17.6381 2.36152C17.9181 2.64153 18.0915 2.9082 18.2368 3.28153C18.3463 3.5632 18.4768 3.98654 18.5123 4.76655C18.5507 5.60989 18.559 5.86323 18.559 7.99825C18.559 10.1333 18.5507 10.3866 18.5123 11.2299C18.4767 12.01 18.3463 12.4333 18.2368 12.715C18.0918 13.0883 17.9181 13.3541 17.6381 13.634C17.3581 13.914 17.0923 14.0873 16.7188 14.2323C16.4371 14.3423 16.0135 14.4723 15.2335 14.508C14.3901 14.5463 14.1368 14.5547 12.0007 14.5547C9.86456 14.5547 9.61139 14.5463 8.76805 14.508C7.98804 14.472 7.5647 14.3416 7.28253 14.2321C6.9092 14.0871 6.64253 13.9138 6.36252 13.6338C6.08252 13.3538 5.90919 13.0878 5.76385 12.7143C5.65435 12.4326 5.52385 12.0093 5.48835 11.2293C5.45002 10.3859 5.44235 10.1326 5.44235 7.99625C5.44235 5.85989 5.45002 5.60789 5.48835 4.76455C5.52402 3.98454 5.65435 3.5612 5.76385 3.2792C5.90885 2.90586 6.08252 2.63919 6.36252 2.35919C6.64253 2.07919 6.9092 1.90585 7.28253 1.76052C7.56454 1.65052 7.98804 1.52052 8.76805 1.48468C9.50606 1.45135 9.79206 1.44135 11.2831 1.43968V1.44168ZM16.2711 2.77003C15.7411 2.77003 15.3111 3.19953 15.3111 3.72971C15.3111 4.25971 15.7411 4.68972 16.2711 4.68972C16.8011 4.68972 17.2311 4.25971 17.2311 3.72971C17.2311 3.1997 16.8011 2.7697 16.2711 2.7697V2.77003ZM12.0007 3.89171C9.73189 3.89171 7.89237 5.73123 7.89237 8.00008C7.89237 10.2689 9.73189 12.1076 12.0007 12.1076C14.2696 12.1076 16.1085 10.2689 16.1085 8.00008C16.1085 5.73123 14.2694 3.89171 12.0006 3.89171H12.0007ZM12.0007 5.33339C13.4734 5.33339 14.6674 6.52723 14.6674 8.00008C14.6674 9.47277 13.4734 10.6668 12.0007 10.6668C10.5279 10.6668 9.33406 9.47277 9.33406 8.00008C9.33406 6.52723 10.5279 5.33339 12.0007 5.33339V5.33339Z" fill="white"/>
</g>
<defs>
<filter id="filter0_d_1287_5409" x="0" y="0" width="24" height="24.0001" filterUnits="userSpaceOnUse" color-interpolation-filters="sRGB">
<feFlood flood-opacity="0" result="BackgroundImageFix"/>
<feColorMatrix in="SourceAlpha" type="matrix" values="0 0 0 0 0 0 0 0 0 0 0 0 0 0 0 0 0 0 127 0" result="hardAlpha"/>
<feOffset dy="4"/>
<feGaussianBlur stdDeviation="2"/>
<feComposite in2="hardAlpha" operator="out"/>
<feColorMatrix type="matrix" values="0 0 0 0 0 0 0 0 0 0 0 0 0 0 0 0 0 0 0.25 0"/>
<feBlend mode="normal" in2="BackgroundImageFix" result="effect1_dropShadow_1287_5409"/>
<feBlend mode="normal" in="SourceGraphic" in2="effect1_dropShadow_1287_5409" result="shape"/>
</filter>
</defs>
</svg>
